<?xml version="1.0" encoding="UTF-8"?>
<svg id="Layer_1" xmlns="http://www.w3.org/2000/svg" version="1.1" viewBox="0 0 800 800">
  <!-- Generator: Adobe Illustrator 30.2.1, SVG Export Plug-In . SVG Version: 2.1.1 Build 1)  -->
  <defs>
    <style>
      .st0 {
        fill: #1a1a1a;
      }

      .st0, .st1 {
        display: none;
      }

      .st2 {
        stroke-width: 2px;
      }

      .st2, .st3 {
        stroke-miterlimit: 10;
      }

      .st2, .st3, .st4, .st5 {
        fill: none;
        stroke: #120e06;
      }

      .st6 {
        fill: #120e06;
      }

      .st3, .st5 {
        stroke-width: 4px;
      }

      .st4 {
        stroke-width: 6px;
      }

      .st1 {
        fill: #f4f1ea;
      }
    </style>
  </defs>
  <rect id="Dark_BG" class="st0" width="800" height="800"/>
  <rect id="Light_BG" class="st1" width="800" height="800"/>
  <g id="AU">
    <path class="st6" d="M324.47,415.89c-.66,0-.92.26-1.19,1.05l-7.11,18.83c-1.32,3.29-1.98,6.45-1.98,8.03,0,2.37,1.19,4.08,5.27,4.08h1.97c1.58,0,1.98.26,1.98,1.05,0,1.05-.79,1.32-2.24,1.32-4.21,0-9.88-.39-13.96-.39-1.45,0-8.69.39-15.54.39-1.71,0-2.5-.26-2.5-1.32,0-.79.79-1.05,1.84-1.05,1.19,0,2.77-.13,3.82-.26,6.06-.79,8.56-5.27,11.19-11.85l33.05-82.7c1.58-3.82,2.5-5.27,3.69-5.27,1.05,0,1.98,1.19,3.29,4.21,3.16,7.24,24.23,60.97,32.66,80.99,5,11.85,8.82,13.7,11.59,14.35,1.98.39,3.95.53,5.53.53,1.05,0,1.71.26,1.71,1.05,0,1.05-1.18,1.32-6.06,1.32s-15.27,0-25.81-.26c-2.37-.13-3.03-.26-3.03-1.05,0-.66.53-1.05,1.84-1.19.92-.26,1.84-1.45,1.19-3.03l-10.54-27.92c-.26-.66-.66-.92-1.32-.92h-29.37.03ZM351.43,408.89c.67,0,.8-.4.67-.8l-12-32.92c-.4-1.2-.93-1.6-1.47,0l-12.26,32.78c-.13.53,0,.93.53.93h24.53Z"/>
    <path class="st6" d="M421.13,406.93c0,19.26,3.85,27.36,10.36,32.67,5.98,4.91,12.09,5.45,16.6,5.45,5.84,0,13.02-1.86,18.33-7.17,7.3-7.31,7.71-19.26,7.71-32.94v-16.05c0-20.97,0-24.83-.28-29.25-.27-4.69-1.38-6.9-5.93-7.86-1.1-.28-3.45-.42-4.97-.42s-2.34-.27-2.34-1.24.97-1.24,2.9-1.24c7.04,0,15.73.41,15.87.41,1.65,0,10.35-.41,15.73-.41,1.93,0,2.9.27,2.9,1.24s-.83,1.24-2.48,1.24c-1.52,0-2.34.14-4,.42-3.72.69-4.83,3.03-5.11,7.86-.27,4.41-.27,8.28-.27,29.25v13.53c0,14.83-1.47,30.58-12.69,40.2-9.48,8.15-19.1,9.61-27.78,9.61-7.08,0-19.9-.4-29.65-9.21-6.81-6.14-11.89-16.03-11.89-35.39v-19.48c0-20.19,0-23.9-.27-28.15-.26-4.52-1.33-6.64-5.71-7.57-1.06-.27-3.32-.4-5.18-.4-1.46,0-2.26-.26-2.26-1.2s.93-1.19,2.92-1.19c7.04,0,15.4.4,19.39.4,3.19,0,11.55-.4,16.33-.4,1.99,0,2.92.26,2.92,1.19s-.8,1.2-2.12,1.2c-1.46,0-2.26.13-3.85.4-3.59.66-4.65,2.92-4.92,7.57-.26,4.25-.26,7.97-.26,28.15v18.79h0Z"/>
    <circle id="Inner_Circle" class="st2" cx="399.1" cy="399.35" r="149.5"/>
    <circle id="Outer_Circle" class="st4" cx="399.1" cy="399.35" r="166"/>
  </g>
  <g>
    <g>
      <path class="st5" d="M434.53,644.01c-23.9,3.66-41.11,4.55-64.43,1.28l-6.74-.86,34.88,62.82c.07.11.23.11.29,0l36-63.24Z"/>
      <path class="st5" d="M434.54,644.01l38.66-65.83c-.61-.17-1.25.1-1.57.64l-37.1,65.19Z"/>
      <path class="st5" d="M324.95,577.4l38.41,67.03-36.85-66.38c-.31-.56-.95-.82-1.56-.65Z"/>
    </g>
    <g>
      <path class="st5" d="M251.14,597.4c-19.48-14.31-32.29-25.85-46.46-44.65l-4.16-5.37-19.76,69.08c-.03.12.08.24.21.21l70.17-19.26Z"/>
      <path class="st5" d="M251.16,597.41l73.89-19.21c-.31-.55-.95-.82-1.56-.65l-72.33,19.86Z"/>
      <path class="st5" d="M220.76,472.82l-20.24,74.56,20.88-73c.18-.61-.09-1.25-.64-1.56Z"/>
    </g>
    <g>
      <path class="st5" d="M154.43,434.77c-3.66-23.9-4.55-41.11-1.28-64.43l.86-6.74-62.82,34.88c-.11.07-.11.23,0,.29l63.24,36Z"/>
      <path class="st5" d="M154.43,434.79l65.83,38.66c.17-.61-.1-1.25-.64-1.57l-65.19-37.1Z"/>
      <path class="st5" d="M221.04,325.19l-67.03,38.41,66.38-36.85c.56-.31.82-.95.65-1.56Z"/>
    </g>
    <g>
      <path class="st5" d="M201.05,251.39c14.31-19.48,25.85-32.29,44.65-46.46l5.37-4.16-69.08-19.76c-.12-.03-.24.08-.21.21l19.26,70.17Z"/>
      <path class="st5" d="M201.04,251.4l19.21,73.89c.55-.31.82-.95.65-1.56l-19.86-72.33Z"/>
      <path class="st5" d="M325.63,221.01l-74.56-20.24,73,20.88c.61.18,1.25-.09,1.56-.64Z"/>
    </g>
    <g>
      <path class="st5" d="M363.67,154.68c23.9-3.66,41.11-4.55,64.43-1.28l6.74.86-34.88-62.82c-.07-.11-.23-.11-.29,0l-36,63.24Z"/>
      <path class="st5" d="M363.66,154.68l-38.66,65.83c.61.17,1.25-.1,1.57-.64l37.1-65.19Z"/>
      <path class="st5" d="M473.25,221.29l-38.41-67.03,36.85,66.38c.31.56.95.82,1.56.65Z"/>
    </g>
    <g>
      <path class="st5" d="M547.05,201.29c19.48,14.31,32.29,25.85,46.46,44.65l4.16,5.37,19.76-69.08c.03-.12-.08-.24-.21-.21l-70.17,19.26Z"/>
      <path class="st5" d="M547.04,201.28l-73.89,19.21c.31.55.95.82,1.56.65l72.33-19.86Z"/>
      <path class="st5" d="M577.44,325.88l20.24-74.56-20.88,73c-.18.61.09,1.25.64,1.56Z"/>
    </g>
    <g>
      <path class="st5" d="M643.77,363.92c3.66,23.9,4.55,41.11,1.28,64.43l-.86,6.74,62.82-34.88c.11-.07.11-.23,0-.29l-63.24-36Z"/>
      <path class="st5" d="M643.77,363.91l-65.83-38.66c-.17.61.1,1.25.64,1.57l65.19,37.1Z"/>
      <path class="st5" d="M577.16,473.5l67.03-38.41-66.38,36.85c-.56.31-.82.95-.65,1.56Z"/>
    </g>
    <g>
      <path class="st5" d="M597.16,547.3c-14.31,19.48-25.85,32.29-44.65,46.46l-5.37,4.16,69.08,19.76c.12.03.24-.08.21-.21l-19.26-70.17Z"/>
      <path class="st5" d="M597.17,547.29l-19.21-73.89c-.55.31-.82.95-.65,1.56l19.86,72.33Z"/>
      <path class="st5" d="M472.57,577.69l74.56,20.24-73-20.88c-.61-.18-1.25.09-1.56.64Z"/>
    </g>
  </g>
  <circle id="Inner_Circle2" class="st3" cx="399.1" cy="399.35" r="327.09"/>
</svg>